<?xml version="1.0" encoding="UTF-8"?>
<svg xmlns="http://www.w3.org/2000/svg" xmlns:xlink="http://www.w3.org/1999/xlink" width="24px" height="24px" viewBox="0 0 24 24" version="1.1">
<g id="surface1">
<path style=" stroke:none;fill-rule:evenodd;fill:rgb(0%,0%,0%);fill-opacity:1;" d="M 18 6 L 18 18 L 6 18 L 6 6 Z M 11.050781 9 L 9.882812 9 L 7.664062 15 L 8.71875 15 L 9.136719 13.828125 L 11.792969 13.828125 L 12.203125 15 L 13.320312 15 Z M 15.191406 9 L 14.140625 9 L 14.140625 15 L 15.191406 15 Z M 10.457031 10.007812 L 11.503906 13 L 9.429688 13 Z M 19 15 L 21 15 L 21 17 L 19 17 Z M 7 19 L 9 19 L 9 21 L 7 21 Z M 11 19 L 13 19 L 13 21 L 11 21 Z M 7 3 L 9 3 L 9 5 L 7 5 Z M 15 19 L 17 19 L 17 21 L 15 21 Z M 11 3 L 13 3 L 13 5 L 11 5 Z M 15 3 L 17 3 L 17 5 L 15 5 Z M 19 11 L 21 11 L 21 13 L 19 13 Z M 3 15 L 5 15 L 5 17 L 3 17 Z M 19 7 L 21 7 L 21 9 L 19 9 Z M 3 11 L 5 11 L 5 13 L 3 13 Z M 3 7 L 5 7 L 5 9 L 3 9 Z M 3 7 "/>
</g>
</svg>
