<?xml version="1.0" encoding="UTF-8"?>
<svg xmlns="http://www.w3.org/2000/svg" xmlns:xlink="http://www.w3.org/1999/xlink" width="24px" height="24px" viewBox="0 0 24 24" version="1.1">
<g id="surface1">
<path style=" stroke:none;fill-rule:nonzero;fill:rgb(0%,0%,0%);fill-opacity:1;" d="M 0.75 6 L 20.25 6 C 20.664062 6 21 5.664062 21 5.25 L 21 2.25 C 21 1.835938 20.664062 1.5 20.25 1.5 L 0.75 1.5 C 0.335938 1.5 0 1.835938 0 2.25 L 0 5.25 C 0 5.664062 0.335938 6 0.75 6 Z M 23.25 9.75 L 3.75 9.75 C 3.335938 9.75 3 10.085938 3 10.5 L 3 13.5 C 3 13.914062 3.335938 14.25 3.75 14.25 L 23.25 14.25 C 23.664062 14.25 24 13.914062 24 13.5 L 24 10.5 C 24 10.085938 23.664062 9.75 23.25 9.75 Z M 20.25 18 L 0.75 18 C 0.335938 18 0 18.335938 0 18.75 L 0 21.75 C 0 22.164062 0.335938 22.5 0.75 22.5 L 20.25 22.5 C 20.664062 22.5 21 22.164062 21 21.75 L 21 18.75 C 21 18.335938 20.664062 18 20.25 18 Z M 20.25 18 "/>
</g>
</svg>
